<svg width="162" height="30" viewBox="0 0 162 30" fill="none" xmlns="http://www.w3.org/2000/svg">
<g clip-path="url(#clip0_22_106)">
<path d="M36.0853 26.7447C29.9357 26.7447 25.0507 21.8078 25.0942 14.9824C25.1382 8.06906 30.0222 3.17505 36.0853 3.17505C42.1912 3.17505 47.1197 8.06906 47.1197 14.9824C47.1197 21.8078 42.2787 26.7447 36.0853 26.7447Z" fill="#1754FF"/>
<path d="M146.472 26.0282C140.774 26.0282 136.247 21.3914 136.287 14.9809C136.329 8.4884 140.854 3.89136 146.472 3.89136C152.13 3.89136 156.696 8.4884 156.696 14.9809C156.696 21.3914 152.21 26.0282 146.472 26.0282Z" fill="#3DF069"/>
<path d="M36.0867 26.0487C30.3887 26.0487 25.8623 21.412 25.9026 15.0015C25.9432 8.50895 30.4691 3.91186 36.0867 3.91186C41.7446 3.91186 46.3113 8.50895 46.3113 15.0015C46.3113 21.412 41.8257 26.0487 36.0867 26.0487ZM36.0867 0.000244141C27.7211 0.000244141 21.4168 6.57326 21.4168 15.0417C21.4168 23.5885 27.681 30.0001 36.0867 30.0001C44.5335 30.0001 50.7974 23.5885 50.7974 15.0417C50.7974 6.57326 44.4525 0.000244141 36.0867 0.000244141Z" fill="#3DF069"/>
<path d="M0 0.564453V29.3547H4.16253V16.8963H17.62V12.944H4.16253V4.55704H18.7112V0.564453H0Z" fill="black"/>
<path d="M116.749 13.2674H112.747V6.89551H116.587C119.255 6.89551 120.831 8.14626 120.831 10.0412C120.831 11.9367 119.416 13.2674 116.749 13.2674ZM127.216 9.71832C127.216 3.95204 122.084 0.564453 116.506 0.564453H106.404V29.3547H112.747V18.9924H115.739L123.538 29.3547H130.813L122.044 17.7438C125.034 16.3321 127.216 13.7919 127.216 9.71832Z" fill="black"/>
<path d="M59.5648 13.7512V4.51682H64.4947C67.809 4.51682 70.3149 5.96818 70.3149 9.07365C70.3149 12.4205 67.7687 13.7512 64.4947 13.7512H59.5648ZM74.5182 9.07365C74.5182 3.22634 69.6682 0.564453 64.3738 0.564453H55.4427V29.3547H59.5648V17.7025H63.2423L72.2951 29.3547H77.4676L67.8896 17.1388C71.0018 16.5343 74.5182 13.6305 74.5182 9.07365Z" fill="black"/>
<path d="M146.492 23.7906C142.087 23.7906 138.126 20.4443 138.126 15.0014C138.126 9.31504 142.128 6.16989 146.492 6.16989C150.857 6.16989 154.898 9.3558 154.898 15.0014C154.898 20.4443 150.896 23.7906 146.492 23.7906ZM146.492 0.000187381C138.085 0.0404591 131.457 6.5732 131.457 15.0014C131.457 23.6287 138.49 30 146.492 29.9603C154.493 29.9201 161.525 23.6287 161.525 15.0014C161.525 6.5732 154.898 -0.0405721 146.492 0.000187381Z" fill="#1754FF"/>
<path d="M91.6945 13.9936H87.8561V6.81508H91.6945C94.646 6.81508 96.4634 8.14626 96.4634 10.3641C96.4634 12.4205 94.646 13.9936 91.6945 13.9936ZM91.493 0.564453H81.5113V29.3547H87.8561V20.0013H91.8569C98.0399 20.0013 102.728 16.0102 102.728 10.2831C102.728 3.71014 97.5954 0.564453 91.493 0.564453Z" fill="black"/>
</g>
<defs>
<clipPath id="clip0_22_106">
<rect width="161.525" height="30" fill="white"/>
</clipPath>
</defs>
</svg>
