<?xml version="1.0" encoding="UTF-8"?>
<svg id="Calque_1" data-name="Calque 1" xmlns="http://www.w3.org/2000/svg" xmlns:xlink="http://www.w3.org/1999/xlink" viewBox="0 0 32 32">
  <defs>
    <style>
      .cls-1 {
        fill: none;
      }

      .cls-2 {
        clip-path: url(#clippath);
      }

      .cls-3 {
        fill: #3df069;
      }

      .cls-4 {
        fill: #1754ff;
      }
    </style>
    <clipPath id="clippath">
      <rect class="cls-1" x=".36415" width="31.27169" height="32"/>
    </clipPath>
  </defs>
  <g class="cls-2">
    <path class="cls-4" d="M15.97684,28.52769c-6.54542,0-11.74482-5.26608-11.69852-12.54661,.04678-7.37424,5.24513-12.59459,11.69852-12.59459,6.49888,0,11.74458,5.22034,11.74458,12.59459,0,7.28053-5.15254,12.54661-11.74458,12.54661"/>
    <path class="cls-3" d="M15.97829,.00004C7.07418,.00004,.36411,7.01125,.36411,16.04434c0,9.11665,6.66745,15.95562,15.61418,15.95562,8.99047,0,15.65751-6.83897,15.65751-15.95562C31.6358,7.01125,24.88256,.00004,15.97829,.00004m0,27.7852c-6.06468,0-10.88249-4.94591-10.83955-11.78384,.04318-6.92541,4.86043-11.82894,10.83955-11.82894,6.02206,0,10.88273,4.90353,10.88273,11.82894,0,6.83793-4.77431,11.78384-10.88273,11.78384"/>
  </g>
</svg>