<svg width="154" height="136" viewBox="0 0 154 136" fill="none" xmlns="http://www.w3.org/2000/svg">
<rect width="154" height="136" fill="white"/>
<g clip-path="url(#clip0_21_2)">
<path d="M5.14755 80.9672L12.253 101.57C20.5689 125.681 46.1149 138.762 69.3103 130.788L121.908 112.706C145.104 104.733 157.168 78.7217 148.852 54.6116L141.746 34.0082C133.431 9.89809 107.885 -3.18275 84.6892 4.79075L32.0929 22.8725C8.89582 30.8468 -3.16748 56.8562 5.14755 80.9672Z" fill="#3DF069"/>
<path d="M103.576 90.9355C101.472 90.9355 99.7953 92.5803 99.7953 94.7981C99.7953 96.9718 101.472 98.6606 103.576 98.6606C105.664 98.6606 107.356 96.9718 107.356 94.7981C107.356 92.5803 105.679 90.9355 103.576 90.9355ZM103.576 97.3387C102.207 97.3387 101.251 96.2515 101.251 94.7834C101.251 93.2996 102.193 92.2721 103.576 92.2721C104.943 92.2721 105.899 93.2996 105.899 94.7834C105.899 96.2515 104.928 97.3387 103.576 97.3387Z" fill="#1754FF"/>
<path d="M53.0048 98.4693C53.0048 99.3211 52.5782 99.8647 51.6219 99.8647C51.1806 99.8647 50.8424 99.7764 50.5485 99.7028V100.966C50.754 101.039 51.2395 101.172 51.96 101.172C53.5198 101.172 54.4016 100.026 54.4016 98.5723V91.1562H53.0048V98.4693Z" fill="#1754FF"/>
<path d="M66.7433 91.1554H65.3456V98.4987H66.7433V91.1554Z" fill="#1754FF"/>
<path d="M59.962 90.9355C57.8585 90.9355 56.1816 92.5803 56.1816 94.7981C56.1816 96.9718 57.8585 98.6606 59.962 98.6606C62.0507 98.6606 63.7423 96.9718 63.7423 94.7981C63.7423 92.5803 62.0654 90.9355 59.962 90.9355ZM59.962 97.3387C58.5938 97.3387 57.6383 96.2515 57.6383 94.7834C57.6383 93.2996 58.579 92.2721 59.962 92.2721C61.3302 92.2721 62.2865 93.2996 62.2865 94.7834C62.2865 96.2515 61.3154 97.3387 59.962 97.3387Z" fill="#1754FF"/>
<path d="M66.0513 88.0426C65.4634 88.0426 65.0073 88.4979 65.0073 89.0562C65.0073 89.6432 65.4634 90.0838 66.0513 90.0838C66.6105 90.0838 67.0666 89.6432 67.0666 89.0562C67.0666 88.4979 66.6105 88.0426 66.0513 88.0426Z" fill="#1754FF"/>
<path d="M49.4889 96.3398C49.0623 96.9423 48.4008 97.3535 47.5476 97.3535C46.2973 97.3535 45.4294 96.4281 45.3114 95.3417H50.9889C51.0036 95.1651 51.0184 94.9158 51.0184 94.7245C51.0184 92.6538 49.6363 90.9355 47.4886 90.9355C45.3557 90.9355 43.8548 92.6539 43.8401 94.8128C43.8253 96.957 45.2967 98.6459 47.5034 98.6606C48.9444 98.6606 50.1504 97.8235 50.695 96.8834L49.4889 96.3398ZM47.4592 92.2574C48.6505 92.2574 49.4594 93.0798 49.5331 94.1073H45.2967C45.4736 93.0503 46.3406 92.2574 47.4592 92.2574Z" fill="#1754FF"/>
<path d="M53.7105 88.0278C53.1227 88.0278 52.6666 88.4832 52.6666 89.0562C52.6666 89.6432 53.1227 90.0985 53.7105 90.0985C54.2845 90.0985 54.7406 89.6432 54.7406 89.0562C54.7406 88.4832 54.2845 88.0278 53.7105 88.0278Z" fill="#1754FF"/>
<path d="M42.5161 91.1122C42.5161 88.9827 40.7516 88.0132 38.8242 88.0132H35.5736V98.4988H37.0736V94.2545H38.4123L41.7071 98.4988H43.5904L40.1039 94.0493C41.2372 93.8286 42.5161 92.7716 42.5161 91.1122ZM37.0736 92.8158V89.4527H38.8684C40.0745 89.4527 40.9866 89.9808 40.9866 91.1122C40.9866 92.331 40.0597 92.8158 38.8684 92.8158H37.0736Z" fill="#1754FF"/>
<path d="M80.8345 94.2103L80.0403 93.9904C79.3492 93.7991 78.7015 93.6381 78.7015 93.0651C78.7015 92.5803 79.2166 92.1985 79.9076 92.1838C80.8935 92.1838 81.3495 92.7127 81.614 93.2122L82.9232 92.9621C82.6883 92.022 81.555 90.9208 79.9518 90.9356C78.4371 90.9503 77.2891 91.8609 77.2891 93.0651C77.2891 94.4016 78.3929 94.8569 79.3198 95.1063L80.1729 95.327C80.9524 95.5322 81.7172 95.7235 81.7172 96.4134C81.7172 96.9865 81.099 97.3829 80.2311 97.3976C79.246 97.3976 78.5394 96.8393 78.275 96.1788L76.8192 96.4575C77.1426 97.5145 78.3487 98.6459 80.2163 98.6606C81.6877 98.6753 83.1149 97.7352 83.1149 96.3692C83.1149 95.018 81.9816 94.5332 80.8345 94.2103Z" fill="#1754FF"/>
<path d="M95.4409 90.9502C94.3674 90.9502 93.6608 91.4939 93.2932 91.905V91.1563H91.8964V98.4987H93.2932V94.2838C93.2932 93.1974 93.9998 92.3162 95.1027 92.3162C96.1909 92.3162 96.8533 93.0209 96.8533 94.1514V98.4987H98.2501V93.6528C98.2501 92.1249 96.9998 90.9502 95.4409 90.9502Z" fill="#1754FF"/>
<path d="M89.7192 94.1219H84.5411V95.5027H89.7192V94.1219Z" fill="#1754FF"/>
<path d="M72.6418 90.9502C71.5676 90.9502 70.8618 91.4939 70.4941 91.905V91.1563H69.0964V98.4987H70.4941V94.2838C70.4941 93.1974 71.1999 92.3162 72.3028 92.3162C73.3918 92.3162 74.0534 93.0209 74.0534 94.1514V98.4987H75.4511V93.6528C75.4511 92.1249 74.2008 90.9502 72.6418 90.9502Z" fill="#1754FF"/>
<path d="M113.651 95.4585C113.651 96.3986 113.004 97.2946 111.885 97.2946C110.886 97.2946 110.282 96.6479 110.282 95.5174V91.1562H108.871V95.8844C108.871 97.4703 110.047 98.6458 111.533 98.6458C112.592 98.6458 113.268 98.1022 113.592 97.7057H113.651V98.4987H115.063V91.1563H113.651V95.4585Z" fill="#1754FF"/>
<path d="M120.461 94.2103L119.667 93.9904C118.975 93.7991 118.328 93.6381 118.328 93.0651C118.328 92.5803 118.843 92.1985 119.534 92.1838C120.52 92.1838 120.976 92.7127 121.241 93.2122L122.55 92.9621C122.315 92.022 121.182 90.9208 119.579 90.9356C118.064 90.9503 116.916 91.8609 116.916 93.0651C116.916 94.4016 118.02 94.8569 118.947 95.1063L119.799 95.327C120.579 95.5322 121.344 95.7235 121.344 96.4134C121.344 96.9865 120.726 97.3829 119.858 97.3976C118.873 97.3976 118.166 96.8393 117.902 96.1788L116.445 96.4575C116.769 97.5145 117.976 98.6459 119.843 98.6606C121.315 98.6753 122.741 97.7352 122.741 96.3692C122.741 95.018 121.609 94.5332 120.461 94.2103Z" fill="#1754FF"/>
<path d="M38.4421 62.2732V58.6021C36.0889 58.6021 34.1519 59.6053 33.5389 60.4381V58.7734H29.7638V71.5011H33.5389V65.651C33.5389 64.2071 34.0783 63.3016 34.8387 62.8117C35.697 62.249 37.0696 62.1018 38.4421 62.2732Z" fill="#1754FF"/>
<path d="M125.57 65.8224L126.477 56.7659V54.0253H122.629V56.7659L123.535 65.8224H125.57Z" fill="#1754FF"/>
<path d="M45.8771 71.8439C48.2302 71.8439 50.3138 70.5713 51.4661 68.7838L48.5493 67.4134C47.9363 68.1475 47.1022 68.6133 45.9256 68.6133C44.4299 68.6133 43.2785 67.6827 43.1068 66.4838H51.9074C51.9569 66.1894 51.9811 65.6025 51.9811 65.1619C51.9811 61.5885 49.53 58.6262 45.8034 58.6262C42.1505 58.6262 39.356 61.5634 39.356 65.1861C39.356 69.3231 42.4938 71.8439 45.8771 71.8439ZM45.8276 61.8084C47.3476 61.8084 48.2545 62.7874 48.4262 63.84H43.0332C43.2291 62.8116 44.2097 61.8084 45.8276 61.8084Z" fill="#1754FF"/>
<path d="M110.211 58.6262C106.559 58.6262 103.763 61.5634 103.763 65.1861C103.763 69.3231 106.902 71.8439 110.285 71.8439C112.638 71.8439 114.722 70.5713 115.874 68.7838L112.957 67.4134C112.344 68.1475 111.51 68.6133 110.334 68.6133C108.838 68.6133 107.686 67.6827 107.515 66.4838H116.315C116.365 66.1894 116.389 65.6025 116.389 65.1619C116.389 61.5885 113.938 58.6262 110.211 58.6262ZM107.441 63.84C107.637 62.8117 108.618 61.8084 110.236 61.8084C111.756 61.8084 112.663 62.7874 112.834 63.84H107.441Z" fill="#1754FF"/>
<path d="M62.9207 67.1685C62.2834 67.9761 61.4744 68.6133 60.2241 68.6133C58.484 68.6133 57.1348 67.3399 57.1348 65.2104C57.1348 63.106 58.6063 61.8577 60.2241 61.8577C61.3271 61.8577 62.1854 62.4446 62.7248 63.3752L65.6424 62.0291C64.7354 60.1195 62.7005 58.6262 60.1505 58.6262C56.449 58.6262 53.5557 61.4907 53.5557 65.1619C53.5557 69.3473 56.7187 71.8439 60.2241 71.8439C62.5288 71.8439 64.686 70.522 65.8383 68.5639L62.9207 67.1685Z" fill="#1754FF"/>
<path d="M102.262 68.344C102.017 68.4167 101.306 68.5397 100.693 68.5397C99.3448 68.5397 98.7318 67.9034 98.7318 66.5815V62.0291H102.041V58.969H98.7318V55.567H94.9567V58.969H92.4066V62.0291H94.9567V67.4628C94.9567 69.9836 96.8199 71.8681 99.3942 71.8681C100.987 71.8681 101.895 71.5504 102.262 71.4032V68.344Z" fill="#1754FF"/>
<path d="M86.8115 65.6025C86.8115 67.365 85.9531 68.5639 84.4089 68.5639C82.9133 68.5639 82.178 67.5113 82.178 65.8224V58.7734H78.402V66.753C78.402 69.788 80.4369 71.8681 83.3303 71.8681C84.9725 71.8681 86.1248 71.0362 86.6398 70.4485H86.8115V71.5011H90.5866V58.7734H86.8115V65.6025Z" fill="#1754FF"/>
<path d="M71.5565 60.4381V58.7735H67.7805V71.5011H71.5565V65.6511C71.5565 64.2071 72.0958 63.3016 72.8553 62.8117C73.7138 62.249 75.0863 62.1018 76.4597 62.2732V58.6021C74.1056 58.6021 72.1695 59.6053 71.5565 60.4381Z" fill="#1754FF"/>
<path d="M124.54 67.3398C123.34 67.3398 122.359 68.2946 122.359 69.5187C122.359 70.7176 123.34 71.6966 124.54 71.6966C125.766 71.6966 126.722 70.7176 126.722 69.5187C126.722 68.2946 125.766 67.3398 124.54 67.3398Z" fill="#1754FF"/>
<path d="M111.524 51.2835C114.931 51.2835 118.118 48.787 118.118 44.6015C118.118 40.9303 115.225 38.0416 111.524 38.0416C107.846 38.0416 104.929 40.9303 104.929 44.6015C104.929 48.787 108.14 51.2835 111.524 51.2835ZM111.524 41.248C113.141 41.248 114.613 42.4963 114.613 44.6015C114.613 46.731 113.264 48.0771 111.524 48.0771C109.782 48.0771 108.434 46.731 108.434 44.6015C108.434 42.4962 109.906 41.248 111.524 41.248Z" fill="#1754FF"/>
<path d="M99.0935 45.0915C99.0935 43.6467 99.6328 42.7413 100.393 42.2522C101.252 41.6886 102.624 41.5423 103.997 41.7137V38.0416C101.643 38.0416 99.7065 39.0458 99.0935 39.8777V38.213H95.3184V50.9407H99.0935V45.0915Z" fill="#1754FF"/>
<path d="M44.3495 43.9896H52.1209V40.1469H44.3495V37.3076H52.6602V33.465H40.5006V50.9407H44.3495V43.9896Z" fill="#1754FF"/>
<path d="M60.481 38.0416C56.8039 38.0416 53.8862 40.9303 53.8862 44.6015C53.8862 48.787 57.0978 51.2835 60.481 51.2835C63.8894 51.2835 67.0758 48.787 67.0758 44.6015C67.0758 40.9303 64.1833 38.0416 60.481 38.0416ZM60.481 48.0771C58.7409 48.0771 57.3925 46.7311 57.3925 44.6015C57.3925 42.4963 58.8631 41.248 60.481 41.248C62.0989 41.248 63.5703 42.4963 63.5703 44.6015C63.5703 46.7311 62.222 48.0771 60.481 48.0771Z" fill="#1754FF"/>
<path d="M73.009 45.0915C73.009 43.6467 73.5483 42.7413 74.3087 42.2522C75.1662 41.6886 76.5396 41.5423 77.9122 41.7137V38.0416C75.559 38.0416 73.622 39.0458 73.009 39.8777V38.213H69.2339V50.9407H73.009V45.0915Z" fill="#1754FF"/>
<path d="M86.4189 33.465H80.3634V50.9407H84.2131V45.263H86.64C90.3909 45.263 93.2348 42.8391 93.2348 39.3635C93.2348 35.3737 90.1212 33.465 86.4189 33.465ZM86.542 41.616H84.2131V37.2591H86.542C88.3316 37.2591 89.4345 38.0668 89.4345 39.4129C89.4345 40.6611 88.3316 41.616 86.542 41.616Z" fill="#1754FF"/>
</g>
<defs>
<clipPath id="clip0_21_2">
<rect width="150" height="132" fill="white" transform="translate(2 2)"/>
</clipPath>
</defs>
</svg>
